<?xml version="1.0" encoding="utf-8"?>
<!-- Generator: Adobe Illustrator 25.0.1, SVG Export Plug-In . SVG Version: 6.00 Build 0)  -->
<svg version="1.1" id="Layer_1" xmlns="http://www.w3.org/2000/svg" xmlns:xlink="http://www.w3.org/1999/xlink" x="0px" y="0px"
	 width="560px" height="103px" viewBox="0 0 560 103" style="enable-background:new 0 0 560 103;" xml:space="preserve">
<style type="text/css">
	.st0{fill:#EF5244;}
	.st1{fill:#FFFFFF;}
</style>
<g>
	<g>
		<path class="st0" d="M25.9,85l5.3,3.5c-2.1-0.9-4.1-1.8-5.9-3l-1.8-1.2L25.9,85z M37.4,43.4l-8.9-5.8l0.3-1.3l9,5.9
			C37.6,42.6,37.5,42.9,37.4,43.4z M33.6,44.1L30,41.7c-0.7-0.8-1.1-1.5-1.4-2.4l8.6,5.7v0.5C35.8,45,34.7,44.5,33.6,44.1z
			 M38.5,40.9l-9.1-6l0.8-0.9l9,5.9C38.9,40.3,38.7,40.5,38.5,40.9z M32.3,86.1l7.3,4.8c-1.1-0.2-2.1-0.4-3.2-0.6l-6.8-4.5
			C30.6,85.9,31.4,86,32.3,86.1z M40.3,39L31.4,33l1.2-0.5l8.8,5.7L40.3,39z M43.2,37.6l-8.5-5.5c0.5-0.1,1.1-0.2,1.8-0.2h0.2
			l8.1,5.4C44.2,37.4,43.7,37.5,43.2,37.6z M37.1,86.1l8,5.3c-0.7,0-1.5-0.1-2.2-0.1l-7.8-5.1C35.8,86.2,36.5,86.1,37.1,86.1z
			 M41.2,85.6l8.3,5.5l-1.9,0.2l-8.2-5.5L41.2,85.6z M47.2,37.1l-7.3-4.8c1.2,0.3,2.6,0.6,3.9,1.1l5.9,3.9
			C48.8,37.2,48,37.1,47.2,37.1z M44.7,84.7l8.6,5.6c-0.5,0.2-1.1,0.3-1.7,0.4l-8.5-5.5L44.7,84.7z M47.7,83.6l8.8,5.7l-1.4,0.5
			l-8.7-5.7L47.7,83.6z M50.4,82.2l8.9,5.8l-1.1,0.6l-8.9-5.8C49.7,82.6,50,82.4,50.4,82.2z M53.5,38.1l-2.3-1.5l0.4-1.1l6.7,4.5
			C56.8,39.2,55.2,38.6,53.5,38.1z M52.6,80.5l9,5.8l-1,0.8l-8.9-5.8L52.6,80.5z M61,39.9L52.1,34l0.4-1.1l9,5.9
			C61.4,39.1,61.2,39.5,61,39.9z M53.5,30.3l9,5.9c-0.1,0.4-0.3,0.8-0.4,1.1l-9-5.9L53.5,30.3z M54.5,78.6l9,5.8l-0.8,0.9l-9-5.8
			L54.5,78.6z M63,34.8l-9-5.9l0.4-1.1l9.1,6C63.3,34.1,63.1,34.5,63,34.8z M63.9,32.5l-9.1-6l0.4-0.9l9.1,5.9
			C64.1,31.9,64,32.3,63.9,32.5z M56,76.4l9,5.9l-0.6,1.1l-9.1-6C55.6,77.1,55.7,76.7,56,76.4z M63,63.3l-6-4
			c-0.2-0.3-0.3-0.6-0.4-1l2.3,1.5C60.5,61.1,61.8,62.2,63,63.3z M57.2,73.9l9,6L65.7,81l-9.1-5.9L57.2,73.9z M66.6,78.4l-9-5.9
			c0.2-0.4,0.3-0.8,0.4-1.2l8.8,5.9L66.6,78.4z M66.3,68.7l-8.2-5.4l-0.4-1.7l7.7,5.1C65.8,67.4,66.1,68.1,66.3,68.7z M58.3,68.4
			l8.8,5.8c0,0.4,0,0.9-0.1,1.3l-8.8-5.8C58.2,69.2,58.3,68.8,58.3,68.4z M67,72.4l-8.6-5.7c0-0.5,0-1-0.1-1.5l8.5,5.6
			C66.9,71.4,67,71.9,67,72.4z"/>
		<path class="st0" d="M104.7,58.3L96,52.5v-1.4l8.8,5.8C104.8,57.4,104.8,57.8,104.7,58.3z M96.1,54.4l8.6,5.6v1.5l-8.5-5.6
			C96.1,55.3,96.1,54.9,96.1,54.4z M105.1,55.4l-8.9-5.9l0.3-1.3l8.9,5.9L105.1,55.4z M96.6,57.9l8.3,5.5l0.3,1.6L97,59.6
			C96.9,59,96.7,58.4,96.6,57.9z M105.7,52.6l-8.9-5.9l0.3-1.1l9.1,5.9L105.7,52.6z M106.6,50l-9.1-5.9l0.5-1.1l9,6L106.6,50z
			 M97.9,61.9l7.8,5.2c0.2,0.6,0.4,1.2,0.6,1.8l-7.2-4.8C98.7,63.5,98.3,62.7,97.9,61.9z M99.4,40.7l9.1,6l-0.7,1l-9-5.9
			C99,41.4,99.2,41.1,99.4,40.7z M101,38.6l9,5.9c-0.3,0.4-0.5,0.6-0.7,1l-9.1-6L101,38.6z M102.9,36.7l9,6l-0.8,0.8l-9.1-6
			L102.9,36.7z M107.7,71.5L107.7,71.5c-2-0.8-3.9-2-5.5-3.6L107.7,71.5z M113.1,41.6l-9-5.9c0.4-0.3,0.7-0.5,1.1-0.7l9,5.9
			C113.8,41.1,113.4,41.3,113.1,41.6z M115.5,40l-8.9-5.8c0.4-0.3,0.9-0.4,1.3-0.6l8.8,5.8L115.5,40z M111.8,88.3l-4.9-3.3
			c1.1,0.3,2,0.4,3,0.6l6.6,4.3C114.8,89.5,113.3,89,111.8,88.3z M118.3,38.7l-8.7-5.7c0.4-0.2,1-0.3,1.5-0.4l8.5,5.6L118.3,38.7z
			 M120.4,90.8l-7.3-4.8c0.7,0,1.5,0.1,2.3,0.1l7.7,5L120.4,90.8z M121.5,37.7l-8.4-5.5c0.6-0.1,1.2-0.2,1.9-0.2l8.2,5.5
			C122.7,37.5,122.1,37.5,121.5,37.7z M125.7,37.2l-7.8-5.1c1,0.1,1.9,0.4,2.9,0.5l7,4.7c-0.5-0.1-1-0.1-1.5-0.1H125.7z M125.9,91.3
			l-8-5.3l1.9-0.2l8.1,5.4c-0.6,0.1-1.2,0.1-1.8,0.1H125.9z M130.3,91l-8.4-5.5c0.6-0.1,1.1-0.2,1.7-0.4l8.5,5.5
			C131.5,90.8,131,91,130.3,91z M134.2,90.4l-8.6-5.6c0.5-0.2,1.1-0.3,1.5-0.4l8.6,5.7C135.3,90.1,134.7,90.2,134.2,90.4z
			 M137.6,89.4l-8.7-5.7l1.3-0.5l8.8,5.7L137.6,89.4z M140.6,88.3l-8.8-5.8l1.2-0.5l8.8,5.7C141.4,87.9,141,88.1,140.6,88.3z
			 M143.3,86.9l-8.9-5.8c0.4-0.2,0.8-0.4,1.1-0.7l8.9,5.8C144.1,86.4,143.7,86.7,143.3,86.9z M145.8,85.4l-8.9-5.9l1-0.8l9,5.9
			L145.8,85.4z M148,83.6l-9-5.8l1-0.9l9,6C148.7,83.2,148.3,83.4,148,83.6z M141.8,75l9.1,6c-0.3,0.4-0.6,0.6-0.9,0.9l-9-6
			L141.8,75z M151.8,79.8l-9.1-5.9l0.8-1l9,6L151.8,79.8z M151.4,38.6l-6-4l-1.5-2.2l1.6,1C147.7,34.9,149.7,36.7,151.4,38.6z
			 M145,70.8l9.1,6c-0.3,0.3-0.4,0.6-0.7,1l-9.1-6C144.6,71.4,144.8,71.1,145,70.8z M154.9,75.5l-9.1-6l0.5-1l9.1,5.9L154.9,75.5z
			 M155.2,44l-7.5-4.9l-1-2l7,4.7L155.2,44z M147.5,66.2l9,5.9c-0.1,0.4-0.3,0.7-0.4,1.1l-9-5.9L147.5,66.2z M148.5,63.6l9,5.9
			l-0.4,1.1l-9-5.9C148.2,64.3,148.4,64,148.5,63.6z M157.2,48.5l-8.1-5.4l-0.5-1.8l7.9,5.2C156.8,47.2,157,47.8,157.2,48.5z
			 M157.9,68l-8.9-5.9l0.3-1.1l9,5.9L157.9,68z M158.3,52.4l-8.4-5.5l-0.4-1.6l8.4,5.5L158.3,52.4z M158.5,65.3l-8.9-5.9l0.3-1.2
			l8.9,5.8L158.5,65.3z M159,62.4l-8.9-5.9c0.1-0.4,0.1-0.9,0.1-1.3L159,61V62.4z M158.9,55.9l-8.6-5.6c0-0.5-0.1-1.1-0.1-1.5
			l8.5,5.5L158.9,55.9z M159,59.2l-8.8-5.7c0-0.4,0.1-0.6,0.1-1v-0.4l8.6,5.7C159,58.3,159,58.8,159,59.2z"/>
		<path class="st0" d="M183.8,85.1l7.9,5.2h-2.2l-7.8-5.2H183.8z M188.6,85.1l7.8,5.2h-2.1l-7.9-5.2H188.6z M191.7,85.1V84l8.7,5.7
			v0.6h-1.2l-7.9-5.2H191.7z M200.4,39v1.4l-8.7-5.8v-1.4L200.4,39z M191.7,36.4l8.7,5.8v1.4l-8.7-5.8V36.4z M191.7,39.6l8.7,5.8
			v1.4l-8.7-5.8V39.6z M191.7,42.7l8.7,5.8V50l-8.7-5.8V42.7z M191.7,45.9l8.7,5.8v1.4l-8.7-5.8V45.9z M197.4,54.3l-5.7-3.8v-1.4
			l7.8,5.1C198.8,54.3,198.1,54.3,197.4,54.3z M194.8,54.3h-2.2l-0.9-0.6v-1.4L194.8,54.3z M191.7,68.1l8.7,5.8v1.4l-8.7-5.8V68.1z
			 M191.7,71.3l8.7,5.8v1.4l-8.7-5.8V71.3z M191.7,74.4l8.7,5.8v1.4l-8.7-5.8V74.4z M191.7,77.6l8.7,5.8v1.3l-8.7-5.7V77.6z
			 M191.7,80.8l8.7,5.7v1.4l-8.7-5.7V80.8z M195.1,67.1l7.8,5.2h-2.1l-7.9-5.2C192.9,67.1,195.1,67.1,195.1,67.1z M196.5,33.2
			l7.9,5.2h-2.2l-7.8-5.2H196.5z M197.7,67.1c0.6,0,1.3-0.1,1.9-0.1l8.1,5.3h-2.2L197.7,67.1z M207,38.4l-7.8-5.1
			c1.1,0.1,1.9,0.3,2.8,0.4l5.8,3.9l0.5,0.8L207,38.4L207,38.4z M210.2,72.2l-8.2-5.4l1.8-0.3l8.3,5.5L210.2,72.2z M214.3,71.8
			l-8.4-5.5l1.6-0.4l8.5,5.6L214.3,71.8z M218,70.9l-8.6-5.6l1.3-0.5l8.7,5.7C218.9,70.7,218.4,70.8,218,70.9z M221,69.9l-8.7-5.7
			l1.1-0.6l8.8,5.8L221,69.9z M223.8,68.5l-8.8-5.8c0.4-0.2,0.6-0.4,1-0.7l8.9,5.9L223.8,68.5z M226.2,66.9l-9-5.9l1-0.8l8.9,5.9
			L226.2,66.9z M228.1,65l-8.9-5.9l0.7-0.9l9,5.9L228.1,65z M221.4,56l9,5.9c-0.2,0.4-0.4,0.7-0.6,1l-9-5.9
			C221,56.7,221.2,56.4,221.4,56z M229.1,37.4l-6.8-4.4c-0.3-0.7-0.6-1.3-1-2l3.2,2.1C226.3,34.3,227.9,35.7,229.1,37.4z
			 M231.1,60.6l-9-5.9l0.5-1.1l9,5.9L231.1,60.6z M231.6,41.9l-7.9-5.3l-0.5-1.7l7.7,5L231.6,41.9z M232.1,58.1l-9-5.9
			c0.2-0.4,0.2-0.8,0.4-1.2l8.9,5.9L232.1,58.1z M232.8,55.4l-8.9-5.9l0.3-1.2l8.8,5.8C232.9,54.5,232.8,55,232.8,55.4z M232.8,45.9
			l-8.5-5.6l-0.3-1.5l8.4,5.5L232.8,45.9z M233.1,52.5l-8.8-5.8c0.1-0.4,0.1-0.9,0.1-1.4l8.8,5.8C233.2,51.5,233.2,52,233.1,52.5z
			 M233.2,49.3l-8.7-5.7c0-0.5,0-1-0.1-1.5l8.6,5.7L233.2,49.3z"/>
		<path class="st0" d="M254.3,85.1h2.1l7.8,5.2h-2.1L254.3,85.1z M261.2,85.1l7.9,5.2h-2.2l-7.8-5.2H261.2z M264.5,85.1V84l8.7,5.7
			v0.5h-1.4l-7.9-5.2L264.5,85.1L264.5,85.1z M264.5,23.8l8.7,5.8V31l-8.7-5.8V23.8z M264.5,27l8.7,5.8v1.4l-8.7-5.8V27z
			 M264.5,30.1l8.7,5.8v1.4l-8.7-5.8V30.1z M264.5,33.3l8.7,5.8v1.4l-8.7-5.8V33.3z M264.5,36.5l8.7,5.8v1.4l-8.7-5.8V36.5z
			 M264.5,39.7l8.7,5.8v1.4l-8.7-5.8V39.7z M264.5,42.8l7.6,5h-2.1l-5.5-3.6L264.5,42.8L264.5,42.8z M264.5,47.5V46l2.8,1.8h-2.2
			L264.5,47.5z M264.5,61.8l8.7,5.8v1.4l-8.7-5.8V61.8z M264.5,65l8.7,5.8v1.4l-8.7-5.8V65z M264.5,68.2l8.7,5.8v1.4l-8.7-5.8V68.2z
			 M264.5,71.4l8.7,5.8v1.4l-8.7-5.8V71.4z M264.5,74.5l8.7,5.8v1.4l-8.7-5.8V74.5z M264.5,77.7l8.7,5.8v1.3l-8.7-5.7V77.7z
			 M264.5,80.9l8.7,5.7V88l-8.7-5.7V80.9z M267.5,60.7l7.8,5.2h-2.1l-7.9-5.2H267.5z M272.3,60.7l7.9,5.2H278l-7.8-5.2H272.3z
			 M277.1,60.7l7.8,5.2h-2.1l-7.9-5.2H277.1z M281.9,60.7l7.9,5.2h-2.2l-7.8-5.2H281.9z M286.7,60.7l4.8,3.2v1.4l-7-4.6L286.7,60.7
			L286.7,60.7z M291.5,62.1l-2.1-1.4h2.1V62.1z M299.7,85.1l7.8,5.2h-2.1l-7.8-5.2H299.7z M304.5,85.1l7.8,5.2h-2.1l-7.9-5.2H304.5z
			 M314.3,29.9l-8.7-5.8v-1.3l8.7,5.8V29.9z M305.6,25.6l8.7,5.8v1.4l-8.7-5.8V25.6z M305.6,28.7l8.7,5.8V36l-8.7-5.8V28.7z
			 M305.6,31.9l8.7,5.8v1.4l-8.7-5.8V31.9z M305.6,35.1l8.7,5.8v1.4l-8.7-5.8V35.1z M305.6,38.2l8.7,5.8v1.4l-8.7-5.8V38.2z
			 M305.6,41.4l8.7,5.8v1.4l-8.7-5.8V41.4z M305.6,44.6l8.7,5.8v1.4l-8.7-5.8V44.6z M305.6,47.8l8.7,5.8V55l-8.7-5.8V47.8z
			 M305.6,50.9l8.7,5.8v1.4l-8.7-5.8V50.9z M305.6,54.1l8.7,5.8v1.4l-8.7-5.8V54.1z M305.6,57.3l8.7,5.8v1.4l-8.7-5.8V57.3z
			 M305.6,60.4l8.7,5.8v1.4l-8.7-5.8V60.4z M305.6,63.6l8.7,5.8v1.4l-8.7-5.8V63.6z M305.6,66.8l8.7,5.8V74l-8.7-5.8V66.8z
			 M305.6,69.9l8.7,5.8v1.4l-8.7-5.8V69.9z M305.6,73.1l8.7,5.8v1.4l-8.7-5.8V73.1z M305.6,76.3l8.7,5.8v1.4l-8.7-5.8V76.3z
			 M305.6,79.5l8.7,5.7v1.4l-8.7-5.7V79.5z M305.6,82.6l8.7,5.7v1.4l-8.7-5.7V82.6z"/>
		<path class="st0" d="M340.9,85.1h1.5l7.9,5.2h-1.6L340.9,85.1z M346.3,85.1l7.8,5.2h-1.7l-7.9-5.2H346.3z M350.8,85.1l7.9,5.2
			h-2.2l-7.8-5.2H350.8z M359.7,29.7L351,24v-1.3l8.7,5.8V29.7z M351,25.3l8.7,5.7v1.1l-8.7-5.7V25.3z M351,28.2l8.7,5.7v1.4
			l-8.7-5.7V28.2z M351,31.4l8.7,5.7v1.4l-8.7-5.7V31.4z M351,34.5l8.7,5.7v1.4L351,36V34.5z M351,37.7l8.7,5.7v1.4l-8.7-5.7V37.7z
			 M351,40.9l8.7,5.7V48l-8.7-5.7V40.9z M351,44.1l8.7,5.7v1.4l-8.7-5.7V44.1z M351,47.2l8.7,5.7v1.4l-8.7-5.7V47.2z M351,50.4
			l8.7,5.7v1.4l-8.7-5.7V50.4z M351,53.6l8.7,5.7v1.4L351,55V53.6z M351,56.7l8.7,5.7v1.4l-8.7-5.7V56.7z M351,59.9l8.7,5.7V67
			l-8.7-5.7V59.9z M351,63.1l8.7,5.7v1.4l-8.7-5.7V63.1z M351,66.3l8.7,5.7v1.4l-8.7-5.7V66.3z M351,69.4l8.7,5.7v1.4l-8.7-5.7V69.4
			z M351,72.6l8.7,5.7v1.4L351,74V72.6z M351,75.8l8.7,5.7v1.4l-8.7-5.7V75.8z M351,78.9l8.7,5.7v1.4l-8.7-5.7V78.9z M351,82.1
			l8.7,5.7v1.4l-8.7-5.7V82.1z"/>
		<path class="st0" d="M386.3,85.1L386.3,85.1l7.9,5.2h-0.1L386.3,85.1z M391.2,85.1l7.9,5.2h-2.2l-7.9-5.2H391.2z M396,85.1
			l7.8,5.2h-2.1l-7.9-5.2H396z M396.5,34.7l8.7,5.7v1.4l-8.7-5.7V34.7z M396.5,37.9l8.7,5.7V45l-8.7-5.7V37.9z M403.9,47.4l-7.5-4.9
			v-1.4l8.7,5.7v0.6L403.9,47.4L403.9,47.4z M396.5,44.2l4.8,3.2h-2.1l-2.7-1.8V44.2z M396.5,60.3h0.4l8.4,5.5v1.4l-8.7-5.7V60.3
			L396.5,60.3z M396.5,63.3l8.7,5.7v1.4l-8.7-5.7V63.3z M396.5,66.4l8.4,5.5h-2.2l-6.2-4.1L396.5,66.4L396.5,66.4z M400,71.9h-2.1
			l-1.4-0.9v-1.4L400,71.9z M405.2,38.7l-8.3-5.5h2.2l7.8,5.2h-1.8L405.2,38.7L405.2,38.7z M400.8,85.1l7.9,5.2h-2.2l-7.8-5.2H400.8
			z M401.6,60.3l7.9,5.2h-2.2l-7.8-5.2H401.6z M403.9,33.2l7.9,5.2h-2.2l-7.8-5.2H403.9z M405.6,85.1l7.8,5.2h-2.1l-7.9-5.2H405.6z
			 M406.4,60.3l7.8,5.2h-2.1l-7.9-5.2H406.4z M408.7,33.2l7.8,5.2h-2.1l-7.9-5.2H408.7z M410.4,85.1l7.9,5.2h-2.2l-7.8-5.2H410.4z
			 M411.3,60.3l7.8,5.2h-2.2l-7.8-5.2H411.3z M413.5,33.2l7.9,5.2h-2.2l-7.8-5.2H413.5z M415.2,85.1l7.9,5.2h-2.2l-7.8-5.2H415.2z
			 M416,60.3l7.9,5.2h-2.2l-7.8-5.2H416z M418.3,33.2l7.8,5.2H424l-7.9-5.2H418.3z M420.1,85.1l7.8,5.2h-2.1l-7.9-5.2H420.1z
			 M420.9,60.3l7.8,5.2h-2.1l-7.9-5.2H420.9z M423.1,33.2l7.9,5.2h-2.1l-7.9-5.2H423.1z M424.8,85.1l7.9,5.2h-2.2l-7.8-5.2H424.8z
			 M431.8,57.1l-8.7-5.7V50l8.7,5.8V57.1z M423.1,52.8l8.7,5.7v1.2l-8.7-5.7V52.8z M423.1,55.4l8.7,5.7v1.4l-8.7-5.7V55.4z
			 M431.4,65.5l-8.4-5.5v-1.4l8.7,5.7v1.1H431.4L431.4,65.5z M434.5,29.8l-8.7-5.8v-1.3l8.7,5.8V29.8z M425.8,25.5l8.7,5.8v1.4
			l-8.7-5.8V25.5z M425.8,28.6l8.7,5.8v1.4l-8.7-5.8V28.6z M433.6,38.4l-7.8-5.2v-1.4l8.7,5.8v0.8H433.6z M425.8,76.2l8.7,5.8v1.4
			l-8.7-5.8V76.2z M425.8,79.4l8.7,5.7v1.4l-8.7-5.7V79.4z M425.8,82.5l8.7,5.7v1.4l-8.7-5.7V82.5z"/>
		<path class="st0" d="M468.6,48.7l-9-5.9l1-0.8l9,5.9L468.6,48.7z M470.7,47l-9.1-6l0.9-0.8l9.1,6L470.7,47z M472.7,45.1l-9.2-6.1
			l0.8-0.9l9.2,6L472.7,45.1z M474.4,43.1l-9.2-6.1c0.3-0.3,0.5-0.6,0.7-1l9.2,6L474.4,43.1z M475.8,40.8l-9.1-6l0.5-1.1l9.1,6
			L475.8,40.8z M477,38.3l-9.1-5.9l0.4-1.1l9,5.9L477,38.3z M476.9,29.1l-8.1-5.4l-0.4-1.5l6.2,4.1C475.6,27,476.3,27.9,476.9,29.1z
			 M477.6,35.6l-8.9-5.8l0.3-1.3l8.8,5.8C477.7,34.7,477.7,35.2,477.6,35.6z M477.7,32.5l-8.6-5.7v-0.2c0-0.4,0-0.8-0.1-1.2l8.5,5.5
			C477.6,31.5,477.7,32,477.7,32.5z"/>
		<path class="st0" d="M505.5,85l5.3,3.5c-2.1-0.9-4.1-1.8-5.9-3l-1.9-1.2L505.5,85z M517,43.4l-8.9-5.8l0.3-1.3l9,5.9
			C517.2,42.6,517.1,42.9,517,43.4z M513.2,44.1l-3.6-2.4c-0.7-0.8-1.1-1.5-1.4-2.4l8.6,5.7v0.5C515.4,45,514.3,44.5,513.2,44.1z
			 M518.1,40.9l-9.1-6l0.8-0.9l9,5.9C518.5,40.3,518.3,40.5,518.1,40.9z M511.9,86.1l7.3,4.8c-1.1-0.2-2.1-0.4-3.2-0.6l-6.8-4.5
			C510.2,85.9,511,86,511.9,86.1z M519.9,39L511,33l1.2-0.5l8.8,5.7L519.9,39z M522.7,37.6l-8.5-5.5c0.5-0.1,1.1-0.2,1.8-0.2h0.2
			l8.1,5.4C523.8,37.4,523.3,37.5,522.7,37.6z M516.7,86.1l8,5.3c-0.7,0-1.5-0.1-2.2-0.1l-7.8-5.1C515.4,86.2,516.1,86.1,516.7,86.1
			z M520.8,85.6l8.3,5.5l-1.9,0.2l-8.2-5.5L520.8,85.6z M526.8,37.1l-7.3-4.8c1.2,0.3,2.6,0.6,3.9,1.1l5.9,3.9
			C528.4,37.2,527.6,37.1,526.8,37.1z M524.2,84.7l8.6,5.6c-0.5,0.2-1.1,0.3-1.7,0.4l-8.5-5.5L524.2,84.7z M527.3,83.6l8.8,5.7
			l-1.4,0.5l-8.7-5.7L527.3,83.6z M530,82.2l8.9,5.8l-1.1,0.6l-8.9-5.8C529.3,82.6,529.6,82.4,530,82.2z M533,38.1l-2.3-1.5l0.4-1.1
			l6.7,4.5C536.4,39.2,534.8,38.6,533,38.1z M532.2,80.5l9,5.8l-1,0.8l-8.9-5.8L532.2,80.5z M540.6,39.9l-8.9-5.9l0.4-1.1l9,5.9
			C541,39.1,540.8,39.5,540.6,39.9z M533,30.3l9,5.9c-0.1,0.4-0.3,0.8-0.4,1.1l-9-5.9L533,30.3z M534.1,78.6l9,5.8l-0.8,0.9l-9-5.8
			L534.1,78.6z M542.6,34.8l-9-5.9l0.4-1.1l9.1,6C542.9,34.1,542.7,34.5,542.6,34.8z M543.4,32.5l-9.1-6l0.4-0.9l9.1,5.9
			C543.7,31.9,543.6,32.3,543.4,32.5z M535.6,76.4l9,5.9l-0.6,1.1l-9.1-6C535.2,77.1,535.3,76.7,535.6,76.4z M542.6,63.3l-6-4
			c-0.2-0.3-0.3-0.6-0.4-1l2.3,1.5C540.1,61.1,541.4,62.2,542.6,63.3z M536.7,73.9l9,6l-0.4,1.1l-9.1-5.9L536.7,73.9z M546.2,78.4
			l-9-5.9c0.2-0.4,0.3-0.8,0.4-1.2l8.8,5.9L546.2,78.4z M545.9,68.7l-8.2-5.4l-0.4-1.7l7.7,5.1C545.4,67.4,545.6,68.1,545.9,68.7z
			 M537.9,68.4l8.8,5.8c0,0.4,0,0.9-0.1,1.3l-8.8-5.8C537.8,69.2,537.9,68.8,537.9,68.4z M546.6,72.4l-8.6-5.7c0-0.5,0-1-0.1-1.5
			l8.5,5.6C546.5,71.4,546.6,71.9,546.6,72.4z"/>
	</g>
	<g>
		<path class="st1" d="M34.6,84.6c-7.3,0-14.6-2.5-20.3-5.9l3.8-9.9c5.1,3.4,11.3,5.5,16.8,5.5c7.3,0,10.7-3.6,10.7-7.6
			c0-4.1-2.3-6.6-13.5-10.7c-12.1-4.4-16.2-10.1-16.2-17.5c0-9.3,7.6-18,20.8-18c6.6,0,13.1,1.9,17.1,4.2l-3.5,9.7
			c-3.6-2-9.1-4.1-13.8-4.1c-6.5,0-9.5,3.6-9.5,7.9c0,4,3.3,6.4,12.1,9.6c13.8,5.4,17.8,10.8,17.8,18.9
			C56.8,77.8,48.4,84.6,34.6,84.6z"/>
		<path class="st1" d="M115.6,20.5c19.2,0,33.1,13.5,33.1,32c0,18.2-14.2,32-33.1,32c-18.9,0-33-13.6-33-32
			C82.6,34.6,97,20.5,115.6,20.5z M115.7,74.9c12,0,21.3-9.6,21.3-22.2c0-12.7-8.9-22.3-21.3-22.3c-12.2,0-21.3,9.6-21.3,22.3
			C94.4,65.1,103.7,74.9,115.7,74.9z"/>
		<path class="st1" d="M190.1,65.5v18h-10.9V21.6h18.9c16.5,0,24.7,9.1,24.7,22s-8.2,21.9-26.9,21.9H190.1L190.1,65.5z M190.1,31.6
			v24.2h7.2c10.2,0,13.7-5.5,13.7-12.2c0-6.8-3.4-12-13.7-12H190.1z"/>
		<path class="st1" d="M293.1,59.1h-30.2v24.4H252V21.6h10.9v27.8h30.2V21.7H304v61.8h-10.9V59.1L293.1,59.1z"/>
		<path class="st1" d="M338.5,21.6h10.9v61.9h-10.9V21.6z"/>
		<path class="st1" d="M384,21.6h40.2v10h-29.3V49h26.6v9.7h-26.6v14.8h29.3v10H384V21.6z"/>
		<path class="st1" d="M460.9,31c-0.2,0.1-0.5,0.1-0.6,0.1c-3.8,0-6.6-2.9-6.6-6.6c0-3.6,2.8-6.6,6.6-6.6c5,0,7.1,3.8,7.1,8.7
			c0,5.5-2.9,10.7-9.9,15.8l-2.6-3c3-2.3,5.9-6.5,5.9-8.2V31z"/>
		<path class="st1" d="M514.2,84.6c-7.3,0-14.6-2.5-20.3-5.9l3.8-9.9c5.1,3.4,11.3,5.5,16.8,5.5c7.3,0,10.7-3.6,10.7-7.6
			c0-4.1-2.3-6.6-13.5-10.7c-12.1-4.4-16.2-10.1-16.2-17.5c0-9.3,7.6-18,20.8-18c6.6,0,13.1,1.9,17.1,4.2l-3.5,9.7
			c-3.6-2-9.1-4.1-13.8-4.1c-6.5,0-9.5,3.6-9.5,7.9c0,4,3.3,6.4,12.1,9.6c13.8,5.4,17.8,10.8,17.8,18.9
			C536.4,77.8,528,84.6,514.2,84.6z"/>
	</g>
</g>
</svg>
