<?xml version="1.0" encoding="utf-8"?>
<!-- Generator: Adobe Illustrator 25.2.1, SVG Export Plug-In . SVG Version: 6.00 Build 0)  -->
<svg version="1.1" id="Layer_1" xmlns="http://www.w3.org/2000/svg" xmlns:xlink="http://www.w3.org/1999/xlink" x="0px" y="0px"
	 viewBox="0 0 122.9 108.1" style="enable-background:new 0 0 122.9 108.1;" xml:space="preserve">
<style type="text/css">
	.st0{fill:#EF5244;}
</style>
<g>

		<image style="overflow:visible;opacity:0.75;" width="153" height="138" xlink:href="CABB7FC7.png"  transform="matrix(1 0 0 1 -11 -9.94)">
	</image>
	<g>
		<path class="st0" d="M63.9,24.3c5.3-5.8,4.9-14.9-0.9-20.2c-5.5-5-14-5-19.4,0.2L4.1,44.4c-5.5,5.6-5.5,14.4,0,20l38.7,39.3
			c5.6,5.5,14.7,5.4,20.2-0.3c5.3-5.5,5.4-14.2,0.2-19.7L48.1,68.4l60.7-0.3c7.9-0.1,14.2-6.5,14.2-14.4s-6.5-14.2-14.4-14.2
			l-59.8,0.3L63.9,24.3z"/>
	</g>
</g>
</svg>
