<?xml version="1.0" encoding="utf-8"?>
<!-- Svg Vector Icons : http://www.onlinewebfonts.com/icon -->
<!DOCTYPE svg PUBLIC "-//W3C//DTD SVG 1.1//EN" "http://www.w3.org/Graphics/SVG/1.1/DTD/svg11.dtd">
<svg version="1.1" xmlns="http://www.w3.org/2000/svg" xmlns:xlink="http://www.w3.org/1999/xlink" x="0px" y="0px" viewBox="0 0 1000 1000" enable-background="new 0 0 1000 1000" xml:space="preserve">
<metadata> Svg Vector Icons : http://www.onlinewebfonts.com/icon </metadata>
<g><path d="M839.8,843.5c-200.3,200.3-525,200.3-725.3,0c-45.2-45.2-79.7-97-104.5-152c188.8,85,418.2,50.5,573.3-104.5c155-155.1,189.5-384.5,104.5-573.2c55.1,24.8,106.8,59.3,152,104.5C1040.1,318.5,1040.1,643.2,839.8,843.5z M463.4,479.4l-22.7,36.4l-5.6-42.4l-42.2-10l39.2-18.4l-3.4-42.6l29.9,31l40.1-16.4l-20.7,37.5l28.2,32.5L463.4,479.4z M455.9,338.1l-126.1-60.2l-101.3,96.2l18.3-138.5l-122.8-66.6l137.4-25.4L286.8,6.3l66.6,122.8l138.5-18.3l-96.2,101.3L455.9,338.1z M215.8,560.3L181.7,615l-8.5-63.5l-63.5-14.9l58.9-27.5l-5.2-63.9l44.9,46.5l60.3-24.6l-31.2,56.3l42.4,48.7L215.8,560.3z"/></g>
</svg>