<?xml version="1.0" encoding="utf-8"?>
<!-- Generator: Adobe Illustrator 25.2.1, SVG Export Plug-In . SVG Version: 6.00 Build 0)  -->
<svg version="1.1" id="Layer_1" xmlns="http://www.w3.org/2000/svg" xmlns:xlink="http://www.w3.org/1999/xlink" x="0px" y="0px"
	 viewBox="0 0 1000 1000" style="enable-background:new 0 0 1000 1000;" xml:space="preserve">
<style type="text/css">
	.st0{fill:#EF5244;}
	.st1{fill:none;}
</style>
<g>
	<path class="st0" d="M990,606.3c0-114.9-83.1-210.7-192.4-230.6c1.3-6.5,0.5-13.4-2.8-19.7c-27.7-53.2-69-101.6-116.1-136.2
		c-53.9-39.6-114-60.5-173.8-60.5c-80.5,0-140.1,16.1-187.5,50.8c-43.7,31.9-76.1,78.4-105.1,150.6c-1.6,3.9-2.2,8-2.1,12
		C97.1,389.3,10,486.9,10,604.6C10,720.5,94.6,817,205.3,835.7c4.8,3.2,10.5,5,16.5,5c1.3,0,2.7-0.1,4-0.3c4.1-0.5,8-1.1,11.9-1.6
		c2.2,0.1,4.5,0.2,6.7,0.2c4.5,0,8.7-1,12.6-2.8c10.2-1.4,20-2.8,29.4-4.1c83.3-11.6,138.2-19.2,206.2-19.2
		c24.3,0,161.9,15.5,254.2,26.5c2.8,0.8,5.7,1.3,8.7,1.3c0.8,0,1.7-0.1,2.5-0.1c1.5,0.1,2.9,0,4.4-0.1
		C888.5,836.9,990,733.3,990,606.3z M760.2,780.9c-34-4.1-232-27.7-267.6-27.7c-72.1,0-131.8,8.3-214.5,19.8
		c-13.7,1.9-28.2,3.9-43.6,6c-91.8-5.1-164.9-81.4-164.9-174.4c0-96.3,78.4-174.7,174.7-174.7c55.9,0,107,25.8,140.4,70.7
		c9.8,13.2,28.5,16,41.8,6.2c13.2-9.8,16-28.5,6.2-41.8c-38.5-51.8-97-85.4-160.4-93.1c23.3-54.9,48.3-90.2,80.4-113.6
		c36.6-26.8,85-39.3,152.2-39.3c99.8,0,186.2,75.6,231,153.8c-66.5,5.7-128.5,39.8-168.7,93.8c-9.8,13.2-7.1,31.9,6.2,41.8
		c13.2,9.8,31.9,7.1,41.8-6.2c33.3-44.9,84.5-70.7,140.4-70.7c96.4,0,174.7,78.4,174.7,174.7C930.3,701.1,854.4,778.4,760.2,780.9z"
		/>
</g>
<g>
	<g>
		<path class="st0" d="M349.5,695.8h-25.7V581l-16.6,6.8v-29.5l20.4-9.9h22L349.5,695.8L349.5,695.8z"/>
		<path class="st0" d="M393.6,668h25.7v36.3l-25.7,26.6V668z"/>
		<path class="st0" d="M458.6,670.8l46.9-66.5c2.1-3,3.8-6,4.9-9.2c1.2-3.1,1.7-6.1,1.7-8.8v-0.2c0-4-1.2-7.1-3.6-9.2
			c-2.4-2.2-5.8-3.2-10.1-3.2c-4.3,0-7.7,1.5-10.3,4.5c-2.6,3-4.2,7.3-4.8,12.8v0.1h-26.4V591c0.6-9.2,2.6-17.1,6.2-23.7
			c3.5-6.6,8.3-11.7,14.3-15.2s13-5.2,20.8-5.2c8.5,0,15.8,1.5,21.8,4.5s10.6,7.4,13.8,13.1c3.2,5.7,4.7,12.7,4.7,20.8v0.1
			c0,6.7-1.1,13.3-3.2,19.9c-2.2,6.6-5.2,12.6-9.1,17.9L492.6,669h46.7v26.8h-80.8v-25H458.6z"/>
		<path class="st0" d="M577,668h25.7v36.3L577,730.9V668z"/>
		<path class="st0" d="M660.1,692.5c-6.4-3.2-11.6-8-15.4-14.2c-3.8-6.2-5.9-13.6-6.3-22.2H665c0.4,3,1.2,5.6,2.5,7.8
			c1.3,2.1,2.9,3.8,4.9,4.9s4.3,1.7,6.9,1.7c4.9,0,8.7-1.5,11.3-4.4c2.7-2.9,4-7.1,4-12.4v-3.4c0-5.6-1.1-9.9-3.2-13
			c-2.2-3-5.2-4.6-9.2-4.6h-11.6v-26.8h11.6c3.3,0,5.8-1.3,7.6-4s2.7-6.4,2.7-11.2V588c0-4.5-1-8-3-10.5s-4.7-3.7-8.3-3.7
			c-2.3,0-4.4,0.6-6.3,1.9c-1.9,1.3-3.5,3.1-4.8,5.6c-1.3,2.4-2.3,5.4-2.8,8.8h-26.5c0.8-9,3-16.7,6.7-23.3
			c3.7-6.5,8.6-11.5,14.6-14.9s12.7-5.1,20.1-5.1c12.1,0,21.4,3.3,28,10s9.9,16.1,9.9,28.3v4.5c0,6.8-1.6,12.8-4.8,17.8
			c-3.2,5.1-7.7,8.9-13.6,11.4c6.6,1.6,11.7,5.3,15.3,11.2c3.6,5.8,5.4,13.2,5.4,22.2v4.5c0,8.6-1.6,15.9-4.7,22
			s-7.7,10.7-13.7,13.9s-13.2,4.8-21.7,4.8C673.9,697.4,666.5,695.7,660.1,692.5z"/>
	</g>
</g>
<rect x="434" y="614" class="st1" width="355" height="1"/>
</svg>
