<?xml version="1.0" encoding="utf-8"?>
<!-- Generator: Adobe Illustrator 25.2.1, SVG Export Plug-In . SVG Version: 6.00 Build 0)  -->
<svg version="1.1" id="Layer_1" xmlns="http://www.w3.org/2000/svg" xmlns:xlink="http://www.w3.org/1999/xlink" x="0px" y="0px"
	 viewBox="0 0 1000 1000" style="enable-background:new 0 0 1000 1000;" xml:space="preserve">
<style type="text/css">
	.st0{fill:#EF5244;}
	.st1{fill:none;}
</style>
<g>
	<path class="st0" d="M990,606.3c0-114.9-83.1-210.7-192.4-230.6c1.3-6.5,0.5-13.4-2.8-19.7c-27.7-53.2-69-101.6-116.1-136.2
		c-53.9-39.6-114-60.5-173.8-60.5c-80.5,0-140.1,16.1-187.5,50.8c-43.7,31.9-76.1,78.4-105.1,150.6c-1.6,3.9-2.2,8-2.1,12
		C97.1,389.3,10,486.9,10,604.6C10,720.5,94.6,817,205.3,835.7c4.8,3.2,10.5,5,16.5,5c1.3,0,2.7-0.1,4-0.3c4.1-0.5,8-1.1,11.9-1.6
		c2.2,0.1,4.5,0.2,6.7,0.2c4.5,0,8.7-1,12.6-2.8c10.2-1.4,20-2.8,29.4-4.1c83.3-11.6,138.2-19.2,206.2-19.2
		c24.3,0,161.9,15.5,254.2,26.5c2.8,0.8,5.7,1.3,8.7,1.3c0.8,0,1.7-0.1,2.5-0.1c1.5,0.1,2.9,0,4.4-0.1
		C888.5,836.9,990,733.3,990,606.3z M760.2,780.9c-34-4.1-232-27.7-267.6-27.7c-72.1,0-131.8,8.3-214.5,19.8
		c-13.7,1.9-28.2,3.9-43.6,6c-91.8-5.1-164.9-81.4-164.9-174.4c0-96.3,78.4-174.7,174.7-174.7c55.9,0,107,25.8,140.4,70.7
		c9.8,13.2,28.5,16,41.8,6.2c13.2-9.8,16-28.5,6.2-41.8c-38.5-51.8-97-85.4-160.4-93.1c23.3-54.9,48.3-90.2,80.4-113.6
		c36.6-26.8,85-39.3,152.2-39.3c99.8,0,186.2,75.6,231,153.8c-66.5,5.7-128.5,39.8-168.7,93.8c-9.8,13.2-7.1,31.9,6.2,41.8
		c13.2,9.8,31.9,7.1,41.8-6.2c33.3-44.9,84.5-70.7,140.4-70.7c96.4,0,174.7,78.4,174.7,174.7C930.3,701.1,854.4,778.4,760.2,780.9z"
		/>
</g>
<rect x="434" y="614" class="st1" width="355" height="1"/>
</svg>
