<?xml version="1.0" encoding="utf-8"?>
<!-- Generator: Adobe Illustrator 25.2.1, SVG Export Plug-In . SVG Version: 6.00 Build 0)  -->
<svg version="1.1" id="Layer_1" xmlns="http://www.w3.org/2000/svg" xmlns:xlink="http://www.w3.org/1999/xlink" x="0px" y="0px"
	 viewBox="0 0 1000 1000" style="enable-background:new 0 0 1000 1000;" xml:space="preserve">
<style type="text/css">
	.st0{fill:#F47B41;}
</style>
<g>
	<g transform="translate(0.000000,511.000000) scale(0.100000,-0.100000)">
		<path class="st0" d="M4636.3,5024.7c-586-60.6-1014.4-159.6-1469-343.5C1637.7,4068.9,504.1,2711.1,182.8,1106.7
			C108,736.9,89.9,545,89.9,126.7c0-668.8,105.1-1226.5,341.5-1812.5c573.9-1426.6,1743.8-2481.3,3235-2913.7
			c414.2-119.2,820.4-173.8,1323.5-173.8c771.9,0,1416.4,143.5,2099.4,466.8c1018.4,480.9,1852.9,1315.4,2333.8,2333.8
			c323.3,683,466.8,1327.5,466.8,2099.4s-143.5,1416.5-466.8,2099.4c-707.2,1493.3-2085.2,2507.6-3756.3,2762.2
			C5470.8,5016.6,4800,5040.9,4636.3,5024.7z M5410.2,4246.8c493-52.5,951.7-185.9,1390.2-400.1
			c838.5-410.2,1489.2-1058.8,1905.4-1901.4C9623.1,92.4,9019-2144.4,7287.3-3316.4c-107.1-72.7-323.3-196-478.9-272.8
			c-1147.7-567.8-2489.4-567.8-3637.1,0C2328.7-3173,1680.1-2522.3,1269.9-1683.8c-911.3,1861-307.1,4081.7,1426.6,5257.7
			C3466.4,4093.2,4488.8,4347.8,5410.2,4246.8z"/>
		<path class="st0" d="M3040,1995.8c-155.6-54.6-293-250.5-293-414.2c0-171.8,153.6-377.9,313.2-422.3
			c113.2-30.3,3726-30.3,3839.2,0c159.6,44.4,313.2,250.5,313.2,422.3s-153.6,377.9-313.2,422.3c-56.6,16.2-638.5,22.2-1929.7,22.2
			C3428,2024.1,3106.7,2020,3040,1995.8z"/>
		<path class="st0" d="M3040,561.1c-44.5-16.2-119.2-68.7-165.7-117.2c-173.8-183.9-169.7-422.3,12.1-602.1
			c56.6-58.6,123.3-103.1,173.8-117.2c113.2-30.3,3726-30.3,3839.2,0C7059-231,7212.6-24.9,7212.6,146.9S7059,524.8,6899.4,569.2
			c-56.6,16.2-638.5,22.2-1929.7,22.2C3428,589.4,3106.7,585.4,3040,561.1z"/>
		<path class="st0" d="M3040-893.7c-44.5-16.2-119.2-68.7-165.7-117.2c-173.8-183.9-169.7-422.3,12.1-602.1
			c56.6-58.6,123.3-103.1,173.8-117.2c113.2-30.3,3726-30.3,3839.2,0c159.6,44.4,313.2,250.5,313.2,422.3
			c0,171.7-153.6,377.9-313.2,422.3c-56.6,16.2-638.5,22.2-1929.7,22.2C3428-865.4,3106.7-869.5,3040-893.7z"/>
	</g>
</g>
</svg>
