<?xml version="1.0" encoding="utf-8"?>
<!-- Generator: Adobe Illustrator 25.2.1, SVG Export Plug-In . SVG Version: 6.00 Build 0)  -->
<svg version="1.1" id="Capa_1" xmlns="http://www.w3.org/2000/svg" xmlns:xlink="http://www.w3.org/1999/xlink" x="0px" y="0px"
	 viewBox="0 0 448.9 448.9" style="enable-background:new 0 0 448.9 448.9;" xml:space="preserve">
<style type="text/css">
	.st0{fill:#EF5244;}
</style>
<path id="XMLID_1423_" class="st0" d="M110.6,307.8c0,3.9-3.1,7-7,7h-1.9c-3.9,0-7-3.1-7-7s3.1-7,7-7h1.9
	C107.5,300.8,110.6,304,110.6,307.8z M67.6,243.4h-1.9c-3.9,0-7,3.1-7,7s3.1,7,7,7h1.9c3.9,0,7-3.1,7-7S71.5,243.4,67.6,243.4z
	 M135.3,187h-1.9c-3.9,0-7,3.1-7,7s3.1,7,7,7h1.9c3.9,0,7-3.1,7-7S139.2,187,135.3,187z M178.3,95.3h-1.9c-3.9,0-7,3.1-7,7
	s3.1,7,7,7h1.9c3.9,0,7-3.1,7-7S182.2,95.3,178.3,95.3z M265.2,173.5c0-12.4,10.1-22.4,22.4-22.4c12.4,0,22.4,10.1,22.4,22.4
	c0,12.4-10.1,22.4-22.4,22.4C275.3,195.9,265.2,185.9,265.2,173.5z M279.2,173.5c0,4.6,3.8,8.4,8.4,8.4s8.4-3.8,8.4-8.4
	s-3.8-8.4-8.4-8.4S279.2,168.8,279.2,173.5z M128.4,154.2c0,12.4-10.1,22.4-22.4,22.4s-22.4-10.1-22.4-22.4s10.1-22.4,22.4-22.4
	S128.4,141.9,128.4,154.2z M114.4,154.2c0-4.6-3.8-8.4-8.4-8.4s-8.4,3.8-8.4,8.4s3.8,8.4,8.4,8.4S114.4,158.9,114.4,154.2z
	 M75.2,187h-1.9c-3.9,0-7,3.1-7,7s3.1,7,7,7h1.9c3.9,0,7-3.1,7-7S79.1,187,75.2,187z M213,109.3h1.9c3.9,0,7-3.1,7-7s-3.1-7-7-7H213
	c-3.9,0-7,3.1-7,7C206,106.1,209.1,109.3,213,109.3z M362.4,300.7c1,0.5,2.1,0.8,3.2,0.8c2.5,0,5-1.4,6.2-3.8l0.9-1.7
	c1.8-3.4,0.4-7.7-3-9.4c-3.4-1.8-7.7-0.4-9.4,3l-0.9,1.7C357.6,294.7,358.9,298.9,362.4,300.7z M296,380.5c1.9,3.2,0.9,7.3-2.2,9.3
	c-0.2,0.2-0.4,0.3-0.7,0.4c-29.5,17-63.3,26-97.5,26c-35.3,0-68.5-9.4-97.2-25.9c-0.2-0.1-0.4-0.2-0.7-0.3c-0.2-0.1-0.4-0.3-0.6-0.4
	c-58.1-34-97.2-97-97.2-169S39,85.5,97.1,51.6c0.2-0.1,0.4-0.3,0.6-0.4c0.2-0.1,0.4-0.2,0.7-0.3C127.1,34.4,160.3,25,195.7,25
	s68.5,9.4,97.2,25.9c0.2,0.1,0.4,0.2,0.7,0.3c0.2,0.1,0.4,0.3,0.6,0.4c58.1,34,97.2,97,97.2,169l0,0l0,0c0,3.9-3.1,7-7,7h-159h-0.1
	h-17.4l8.3,14.5c0.2,0.2,0.3,0.5,0.5,0.7L296,380.5z M280.1,381.5l-90.5-157.4c-1.2-2.2-1.2-4.8,0-7c1.3-2.2,3.6-3.5,6.1-3.5h152.9
	c-1.9-41.9-20.9-81.2-52.8-108.8c-2.9-2.5-3.2-6.9-0.7-9.9c2.5-2.9,6.9-3.2,9.9-0.7c35,30.2,55.8,73.4,57.7,119.4h14.6
	C374.8,152,341.6,98,292.4,67l-75.9,131.5c-1.9,3.3-6.2,4.5-9.6,2.6c-3.3-1.9-4.5-6.2-2.6-9.6L266,84.7
	c-21.6-11.2-45.8-17.1-70.4-17.1c-18.2,0-36,3.2-52.9,9.4c-3.6,1.3-7.7-0.5-9-4.1s0.5-7.7,4.1-9c18.5-6.8,37.9-10.3,57.8-10.3
	c27,0,53.6,6.5,77.4,19l7.3-12.6c-25.3-13.4-54.1-21-84.7-21s-59.4,7.6-84.7,21l75.9,131.5c1.9,3.3,0.8,7.6-2.6,9.6
	c-3.4,1.9-7.6,0.8-9.6-2.6L113.1,91.8c-36.9,23.6-61.8,61.4-68.6,104.8c-0.6,3.8-4.2,6.4-8,5.8c-3.8-0.6-6.4-4.2-5.8-8
	c7.5-47.5,34.9-89,75.4-114.7L98.9,67c-49.1,31-82.4,85-84.7,146.7H166c3.9,0,7,3.1,7,7s-3.1,7-7,7H42.8
	c1.9,42.5,21.4,82.3,54.1,109.9c3,2.5,3.3,6.9,0.8,9.9s-6.9,3.3-9.9,0.8c-35.9-30.3-57.2-74-59.1-120.6H14.1
	c2.3,61.7,35.6,115.6,84.7,146.7l75.9-131.5c1.9-3.3,6.2-4.5,9.6-2.6s4.5,6.2,2.6,9.6l-61.6,106.7c21.6,11.2,45.8,17.1,70.4,17.1
	c18.2,0,36-3.2,53-9.4c3.6-1.3,7.7,0.5,9,4.1s-0.5,7.7-4.1,9c-18.5,6.8-37.9,10.3-57.8,10.3c-27,0-53.6-6.5-77.4-19l-7.3,12.6
	c25.3,13.4,54.1,21,84.7,21C225.1,402.3,254.2,395.1,280.1,381.5z M345.6,333.1c1,0.5,2.1,0.8,3.2,0.8c2.5,0,5-1.4,6.2-3.8l0.9-1.7
	c1.8-3.4,0.4-7.7-3-9.4c-3.4-1.8-7.7-0.4-9.4,3l-0.9,1.7C340.8,327.1,342.2,331.4,345.6,333.1z M320,299.4c1,0.5,2.1,0.8,3.2,0.8
	c2.5,0,5-1.4,6.2-3.8l0.9-1.7c1.8-3.4,0.4-7.7-3-9.4c-3.4-1.8-7.7-0.4-9.4,3L317,290C315.2,293.4,316.6,297.6,320,299.4z
	 M448.9,253.3c0,35-9.4,69.4-27.1,99.4c-17.2,29.1-41.8,53.4-71,70.3c-1.1,0.6-3.2,1.3-5.3,0.7c-1.8-0.5-3.3-1.7-4.2-3.3l-94-163.6
	c-1.2-2.2-1.2-4.8,0-7c1.3-2.2,3.6-3.5,6.1-3.5H442C445.8,246.3,448.9,249.5,448.9,253.3z M434.8,260.3H265.3l70.2,122.1
	c35.9-22.9,60.7-59.5,68.3-101.5c0.7-3.8,4.3-6.3,8.1-5.6c3.8,0.7,6.3,4.3,5.6,8.1c-8.4,46-35.6,86.2-75.1,111.2l7.3,12.7
	C400.5,375.3,432.4,320.1,434.8,260.3z M220.9,339.6h1.9c3.9,0,7-3.1,7-7s-3.1-7-7-7h-1.9c-3.9,0-7,3.1-7,7S217,339.6,220.9,339.6z
	 M199.4,335.8c0,12.4-10.1,22.4-22.4,22.4c-12.4,0-22.4-10.1-22.4-22.4s10.1-22.4,22.4-22.4C189.3,313.4,199.4,323.4,199.4,335.8z
	 M185.4,335.8c0-4.6-3.8-8.4-8.4-8.4c-4.6,0-8.4,3.8-8.4,8.4s3.8,8.4,8.4,8.4C181.6,344.2,185.4,340.4,185.4,335.8z M186.5,279.4
	c0,3.9,3.1,7,7,7h1.9c3.9,0,7-3.1,7-7s-3.1-7-7-7h-1.9C189.7,272.4,186.5,275.5,186.5,279.4z M194.7,147.5h1.9c3.9,0,7-3.1,7-7
	s-3.1-7-7-7h-1.9c-3.9,0-7,3.1-7,7S190.9,147.5,194.7,147.5z M139.1,262.1c0,12.4-10.1,22.4-22.4,22.4c-12.4,0-22.4-10.1-22.4-22.4
	s10.1-22.4,22.4-22.4C129,239.7,139.1,249.8,139.1,262.1z M125.1,262.1c0-4.6-3.8-8.4-8.4-8.4s-8.4,3.8-8.4,8.4s3.8,8.4,8.4,8.4
	C121.3,270.6,125.1,266.8,125.1,262.1z"/>
</svg>
