<?xml version="1.0" encoding="utf-8"?>
<!-- Generator: Adobe Illustrator 25.2.1, SVG Export Plug-In . SVG Version: 6.00 Build 0)  -->
<svg version="1.1" id="Layer_1" xmlns="http://www.w3.org/2000/svg" xmlns:xlink="http://www.w3.org/1999/xlink" x="0px" y="0px"
	 viewBox="0 0 512 512" style="enable-background:new 0 0 512 512;" xml:space="preserve">
<style type="text/css">
	.st0{fill:#F47C44;}
</style>
<g>
	<path class="st0" d="M478.1,96.5H33.8C15.2,96.5,0,112.6,0,132.3l0,294.1c0,19.8,15.2,35.8,33.8,35.8h107.7c4.1,0,7.5-3.2,7.5-7.2
		v-1c0-4-3.4-7.2-7.5-7.2H33.7c-10.3,0-18.7-8.9-18.7-19.8V132.6c0-10.9,8.4-19.8,18.7-19.8h444.5c10.3,0,18.8,8.9,18.8,19.8v294.4
		c0,10.9-8.4,19.8-18.8,19.8H177.5c-4.1,0-7.5,3.2-7.5,7.2v1.9c0,4,3.4,7.2,7.5,7.2h300.6c18.7,0,33.9-16.1,33.9-35.9V132.4
		C512,112.6,496.8,96.5,478.1,96.5z"/>
	<path class="st0" d="M30.4,217.6v109.1c0,13.9,14.1,25.3,31.5,25.3s31.5-11.4,31.5-25.3V217.6c0-13.9-14.1-25.3-31.5-25.3
		C44.5,192.3,30.4,203.7,30.4,217.6z M72.9,218.8v106.7c0,4.5-4.6,8.2-10.3,8.2c-5.7,0-10.3-3.7-10.3-8.2V218.8
		c0-4.5,4.6-8.3,10.3-8.3C68.3,210.6,72.9,214.3,72.9,218.8z"/>
</g>
</svg>
