<?xml version="1.0" encoding="utf-8"?>
<!-- Generator: Adobe Illustrator 25.2.1, SVG Export Plug-In . SVG Version: 6.00 Build 0)  -->
<svg version="1.1" id="Layer_1" xmlns="http://www.w3.org/2000/svg" xmlns:xlink="http://www.w3.org/1999/xlink" x="0px" y="0px"
	 viewBox="0 0 1000 1000" style="enable-background:new 0 0 1000 1000;" xml:space="preserve">
<style type="text/css">
	.st0{fill:#F47844;}
</style>
<g>
	<path class="st0" d="M763.8,990H236.2c-83.3,0-150.8-67.5-150.8-150.8V311.5c0-83.3,67.5-150.8,150.8-150.8h75.4V85.4h82.3
		C409.4,41.5,450.8,10,500,10s90.6,31.5,106.1,75.4h82.3v75.4h75.4c83.3,0,150.8,67.5,150.8,150.8v527.7
		C914.6,922.5,847.1,990,763.8,990z M650.8,160.8h-37.7h-6.9h-68.5V85.4h-75.4v75.4h-68.4h-44.6v75.4H500h113.1h37.7V160.8z
		 M839.2,311.5c0-41.6-33.7-75.4-75.4-75.4h-75.4v75.4H311.5v-75.4h-75.4c-41.6,0-75.4,33.8-75.4,75.4v527.7
		c0,41.6,33.8,75.4,75.4,75.4h527.7c41.7,0,75.4-33.7,75.4-75.4L839.2,311.5L839.2,311.5z M349.2,763.8h414.6v75.4H349.2V763.8z
		 M349.2,575.4h414.6v75.4H349.2V575.4z M349.2,386.9h414.6v75.4H349.2V386.9z M236.2,763.8h75.4v75.4h-75.4L236.2,763.8
		L236.2,763.8z M236.2,575.4h75.4v75.4h-75.4L236.2,575.4L236.2,575.4z M236.2,386.9h75.4v75.4h-75.4L236.2,386.9L236.2,386.9z"/>
</g>
</svg>
