<?xml version="1.0" encoding="utf-8"?>
<!-- Generator: Adobe Illustrator 25.2.1, SVG Export Plug-In . SVG Version: 6.00 Build 0)  -->
<svg version="1.1" id="Layer_1" xmlns="http://www.w3.org/2000/svg" xmlns:xlink="http://www.w3.org/1999/xlink" x="0px" y="0px"
	 viewBox="0 0 1000 1000" style="enable-background:new 0 0 1000 1000;" xml:space="preserve">
<style type="text/css">
	.st0{fill:#032D48;}
</style>
<g>
	<g transform="translate(0.000000,511.000000) scale(0.100000,-0.100000)">
		<path class="st0" d="M3395.7,4584.9c-5.9-19.8-25.7-96.9-43.5-174c-98.9-411.2-355.9-682.1-759.2-792.8
			c-67.2-19.8-120.6-41.5-120.6-49.4s73.2-37.6,164.1-65.2c389.5-118.6,605-355.9,713.7-784.9c25.7-96.9,49.4-179.9,55.4-185.8
			c5.9-5.9,29.7,67.2,53.4,162.1c108.7,448.8,332.1,690,747.3,816.5c79.1,23.7,140.4,49.4,134.4,59.3c-4,7.9-83,37.6-172,65.2
			c-389.5,122.6-606.9,369.7-709.7,800.7C3413.4,4628.4,3409.5,4636.3,3395.7,4584.9z"/>
		<path class="st0" d="M6373,2661.3c-235.3-33.6-373.6-81.1-688-237.2c-514-255-729.5-304.5-1122.9-259
			c-990.5,116.6-1468.9,7.9-1739.8-387.5c-122.6-181.9-162.1-344-160.1-658.3c2-316.3,49.4-545.7,217.5-1073.5
			c209.6-652.4,211.5-824.4,7.9-1449.1c-150.3-460.6-195.7-644.5-211.5-867.9c-43.5-648.4,316.3-1053.7,1061.7-1188.2
			c94.9-17.8,346-35.6,571.3-41.5l401.3-11.9l-21.7,41.5c-33.6,61.3-233.3,308.4-405.3,498.2c-83,92.9-179.9,223.4-213.5,292.6
			c-57.3,114.7-61.3,144.3-77.1,415.2c-17.8,340-29.7,389.5-158.2,628.7c-57.3,104.8-106.8,227.4-118.6,294.6
			c-39.5,219.4,47.4,407.2,237.2,512.1c199.7,106.7,444.8,89,652.4-51.4l87-57.3l-13.8,75.1c-122.6,705.8-116.6,1130.8,17.8,1423.4
			c94.9,211.5,247.1,322.2,434.9,320.3c55.4,0,116.6-7.9,138.4-15.8c31.6-13.8,45.5,0,81.1,75.1c79.1,168,189.8,239.2,369.7,239.2
			c132.5,0,241.2-61.3,322.2-179.9l61.3-90.9l55.4,39.5c67.2,51.4,261,69.2,346,33.6c87-35.6,225.4-193.7,286.7-328.2l53.4-116.6
			l132.5-2c381.6-2,612.9-334.1,790.8-1134.8c108.7-492.3,126.5-662.3,114.7-1077.5c-13.8-508.1-71.2-753.2-310.4-1374
			c-75.1-189.8-142.3-369.7-148.3-399.4l-13.8-55.4h286.7c573.3,0,818.5,75.1,970.7,294.6c85,120.6,126.5,253,207.6,674.1
			c142.3,717.7,278.8,1022.1,638.6,1437.3c140.4,160.1,227.4,312.4,296.6,504.1c201.7,571.3,51.4,1287-357.9,1698.2
			c-162.1,162.1-320.3,245.1-571.3,298.5c-498.2,104.8-792.8,302.5-1103.2,741.4c-73.1,100.8-168,217.5-213.5,255
			c-108.7,92.9-326.2,193.7-502.1,233.3C6887,2669.2,6539.1,2685,6373,2661.3z"/>
		<path class="st0" d="M1280.3,1125.1c-5.9-7.9-27.7-90.9-49.4-185.8c-87-365.7-191.8-563.4-401.3-759.2
			C685.2,45.7,525.1-39.3,272-116.4c-94.9-27.7-172-59.3-172-69.2s77.1-41.5,174-69.2c452.7-138.4,737.4-393.4,879.8-790.8
			c25.7-75.1,63.3-207.6,83-292.6c17.8-83,41.5-156.2,49.4-162.1s39.5,90.9,67.2,211.5c75.1,318.3,177.9,519.9,355.9,695.9
			c164.1,164.1,322.3,255,575.3,330.2c96.9,27.7,179.9,61.3,183.9,73.1c4,11.9-71.2,43.5-168,73.2
			c-531.8,162.1-810.6,464.6-947,1028C1298.1,1142.9,1296.1,1150.8,1280.3,1125.1z"/>
		<path class="st0" d="M5629.7,721.8c-75.1-43.5-118.6-176-120.6-367.7c-2-100.8-5.9-183.9-11.9-183.9c-7.9,0-23.7,31.6-37.6,71.2
			c-13.8,39.5-57.3,106.8-94.9,148.3c-124.6,136.4-274.8,120.6-353.9-37.6c-85-168-79.1-438.9,21.7-1051.8
			c94.9-567.4,102.8-885.7,21.7-964.8c-29.7-29.7-35.6-29.7-87,0c-29.7,17.8-90.9,89-138.4,158.2
			c-110.7,164.1-231.3,284.7-330.2,332.1c-150.3,73.1-371.7,41.5-425.1-61.3c-19.8-33.6-9.9-61.3,57.3-172
			c156.2-261,249.1-551.6,270.9-860c15.8-221.4,47.4-300.5,193.7-468.6c470.5-543.7,595.1-800.7,614.8-1263.3l5.9-170l136.4-63.3
			c450.7-211.5,1037.9-211.5,1538.1-5.9l142.4,61.3l11.9,340c17.8,460.6,35.6,547.6,239.2,1073.5c98.8,257,168,502.2,203.6,729.5
			c55.4,369.7,4,1043.8-112.7,1472.9c-128.5,462.6-284.7,691.9-474.5,691.9c-85,0-130.5-41.5-164.1-150.2L6715-96.6l-7.9,69.2
			c-21.8,233.3-122.6,484.4-219.5,551.6c-134.4,92.9-280.7,65.2-340-65.2c-19.8-43.5-37.6-102.8-39.5-130.5
			c0-33.6-11.9-15.8-35.6,59.3c-49.4,154.2-89,223.4-170,294.6c-55.4,47.4-89,61.3-154.2,61.3
			C5702.8,743.6,5649.4,733.7,5629.7,721.8z"/>
	</g>
</g>
</svg>
