<?xml version="1.0" encoding="utf-8"?>
<!-- Generator: Adobe Illustrator 25.2.1, SVG Export Plug-In . SVG Version: 6.00 Build 0)  -->
<svg version="1.1" id="Layer_1" xmlns="http://www.w3.org/2000/svg" xmlns:xlink="http://www.w3.org/1999/xlink" x="0px" y="0px"
	 viewBox="0 0 560 103" style="enable-background:new 0 0 560 103;" xml:space="preserve">
<style type="text/css">
	.st0{fill:#E5714C;}
	.st1{fill:#102F54;}
</style>
<g>
	<g>
		<path class="st0" d="M17.8,85l5.4,3.5c-2.1-0.9-4.2-1.8-6-3l-1.8-1.2L17.8,85z M29.5,43.4l-9-5.8l0.3-1.3l9.1,5.9
			C29.7,42.6,29.6,42.9,29.5,43.4z M25.6,44.1l-3.7-2.4c-0.7-0.8-1.1-1.5-1.4-2.4l8.7,5.7v0.5C27.8,45,26.7,44.5,25.6,44.1z
			 M30.6,40.9l-9.2-6l0.8-0.9l9.1,5.9C31,40.3,30.8,40.5,30.6,40.9z M24.3,86.1l7.4,4.8c-1.1-0.2-2.1-0.4-3.2-0.6l-6.9-4.5
			C22.6,85.9,23.4,86,24.3,86.1z M32.4,39l-9-6l1.2-0.5l8.9,5.7L32.4,39z M35.4,37.6l-8.6-5.5c0.5-0.1,1.1-0.2,1.8-0.2h0.2l8.2,5.4
			C36.4,37.4,35.9,37.5,35.4,37.6z M29.2,86.1l8.1,5.3c-0.7,0-1.5-0.1-2.2-0.1l-7.9-5.1C27.8,86.2,28.5,86.1,29.2,86.1z M33.3,85.6
			l8.4,5.5l-1.9,0.2l-8.3-5.5L33.3,85.6z M39.4,37.1L32,32.3c1.2,0.3,2.6,0.6,4,1.1l6,3.9C41,37.2,40.2,37.1,39.4,37.1z M36.9,84.7
			l8.7,5.6c-0.5,0.2-1.1,0.3-1.7,0.4l-8.6-5.5L36.9,84.7z M39.9,83.6l8.9,5.7l-1.4,0.5l-8.8-5.7L39.9,83.6z M42.7,82.2l9,5.8
			l-1.1,0.6l-9-5.8C42,82.6,42.3,82.4,42.7,82.2z M45.8,38.1l-2.3-1.5l0.4-1.1l6.8,4.5C49.2,39.2,47.5,38.6,45.8,38.1z M44.9,80.5
			l9.1,5.8l-1,0.8l-9-5.8L44.9,80.5z M53.4,39.9l-9-5.9l0.4-1.1l9.1,5.9C53.8,39.1,53.6,39.5,53.4,39.9z M45.8,30.3l9.1,5.9
			c-0.1,0.4-0.3,0.8-0.4,1.1l-9.1-5.9L45.8,30.3z M46.8,78.6l9.1,5.8l-0.8,0.9L46,79.5L46.8,78.6z M55.5,34.8l-9.1-5.9l0.4-1.1
			l9.2,6C55.8,34.1,55.6,34.5,55.5,34.8z M56.4,32.5l-9.2-6l0.4-0.9l9.2,5.9C56.6,31.9,56.5,32.3,56.4,32.5z M48.4,76.4l9.1,5.9
			l-0.6,1.1l-9.2-6C47.9,77.1,48,76.7,48.4,76.4z M55.5,63.3l-6.1-4c-0.2-0.3-0.3-0.6-0.4-1l2.3,1.5C52.9,61.1,54.2,62.2,55.5,63.3z
			 M49.6,73.9l9.1,6L58.2,81L49,75.1L49.6,73.9z M59.1,78.4L50,72.5c0.2-0.4,0.3-0.8,0.4-1.2l8.9,5.9L59.1,78.4z M58.8,68.7
			l-8.3-5.4l-0.4-1.7l7.8,5.1C58.3,67.4,58.6,68.1,58.8,68.7z M50.7,68.4l8.9,5.8c0,0.4,0,0.9-0.1,1.3l-8.9-5.8
			C50.6,69.2,50.7,68.8,50.7,68.4z M59.5,72.4l-8.7-5.7c0-0.5,0-1-0.1-1.5l8.6,5.6C59.4,71.4,59.5,71.9,59.5,72.4z"/>
		<path class="st0" d="M97.8,58.3L89,52.5v-1.4l8.9,5.8C97.9,57.4,97.9,57.8,97.8,58.3z M89.1,54.4l8.7,5.6v1.5l-8.6-5.6
			C89.1,55.3,89.1,54.9,89.1,54.4z M98.2,55.4l-9-5.9l0.3-1.3l9,5.9L98.2,55.4z M89.6,57.9l8.4,5.5l0.3,1.6L90,59.6
			C89.9,59,89.7,58.4,89.6,57.9z M98.8,52.6l-9-5.9l0.3-1.1l9.2,5.9L98.8,52.6z M99.7,50l-9.2-5.9L91,43l9.1,6L99.7,50z M90.9,61.9
			l7.9,5.2c0.2,0.6,0.4,1.2,0.6,1.8l-7.3-4.8C91.7,63.5,91.3,62.7,90.9,61.9z M92.4,40.7l9.2,6l-0.7,1l-9.1-5.9
			C92,41.4,92.2,41.1,92.4,40.7z M94.1,38.6l9.1,5.9c-0.3,0.4-0.5,0.6-0.7,1l-9.2-6L94.1,38.6z M96,36.7l9.1,6l-0.8,0.8l-9.2-6
			L96,36.7z M100.9,71.5L100.9,71.5c-2-0.8-4-2-5.6-3.6L100.9,71.5z M106.3,41.6l-9.1-5.9c0.4-0.3,0.7-0.5,1.1-0.7l9.1,5.9
			C107.1,41.1,106.6,41.3,106.3,41.6z M108.8,40l-9-5.8c0.4-0.3,0.9-0.4,1.3-0.6l8.9,5.8L108.8,40z M105,88.3l-5-3.3
			c1.1,0.3,2,0.4,3,0.6l6.7,4.3C108.1,89.5,106.5,89,105,88.3z M111.6,38.7l-8.8-5.7c0.4-0.2,1-0.3,1.5-0.4l8.6,5.6L111.6,38.7z
			 M113.8,90.8l-7.4-4.8c0.7,0,1.5,0.1,2.3,0.1l7.8,5L113.8,90.8z M114.9,37.7l-8.5-5.5c0.6-0.1,1.2-0.2,1.9-0.2l8.3,5.5
			C116.1,37.5,115.5,37.5,114.9,37.7z M119.1,37.2l-7.9-5.1c1,0.1,1.9,0.4,2.9,0.5l7.1,4.7c-0.5-0.1-1-0.1-1.5-0.1
			C119.7,37.2,119.1,37.2,119.1,37.2z M119.3,91.3l-8.1-5.3l1.9-0.2l8.2,5.4c-0.6,0.1-1.2,0.1-1.8,0.1H119.3z M123.8,91l-8.5-5.5
			c0.6-0.1,1.1-0.2,1.7-0.4l8.6,5.5C125,90.8,124.5,91,123.8,91z M127.8,90.4l-8.7-5.6c0.5-0.2,1.1-0.3,1.5-0.4l8.7,5.7
			C128.9,90.1,128.3,90.2,127.8,90.4z M131.2,89.4l-8.8-5.7l1.3-0.5l8.9,5.7L131.2,89.4z M134.3,88.3l-8.9-5.8l1.2-0.5l8.9,5.7
			C135.1,87.9,134.7,88.1,134.3,88.3z M137,86.9l-9-5.8c0.4-0.2,0.8-0.4,1.1-0.7l9,5.8C137.8,86.4,137.4,86.7,137,86.9z M139.6,85.4
			l-9-5.9l1-0.8l9.1,5.9L139.6,85.4z M141.8,83.6l-9.1-5.8l1-0.9l9.1,6C142.5,83.2,142.1,83.4,141.8,83.6z M135.5,75l9.2,6
			c-0.3,0.4-0.6,0.6-0.9,0.9l-9.1-6L135.5,75z M145.6,79.8l-9.2-5.9l0.8-1l9.1,6L145.6,79.8z M145.2,38.6l-6.1-4l-1.5-2.2l1.6,1
			C141.5,34.9,143.5,36.7,145.2,38.6z M138.7,70.8l9.2,6c-0.3,0.3-0.4,0.6-0.7,1l-9.2-6C138.3,71.4,138.5,71.1,138.7,70.8z
			 M148.8,75.5l-9.2-6l0.5-1l9.2,5.9L148.8,75.5z M149.1,44l-7.6-4.9l-1-2l7.1,4.7L149.1,44z M141.3,66.2l9.1,5.9
			c-0.1,0.4-0.3,0.7-0.4,1.1l-9.1-5.9L141.3,66.2z M142.3,63.6l9.1,5.9l-0.4,1.1l-9.1-5.9C142,64.3,142.2,64,142.3,63.6z
			 M151.1,48.5l-8.2-5.4l-0.5-1.8l8,5.2C150.7,47.2,150.9,47.8,151.1,48.5z M151.8,68l-9-5.9l0.3-1.1l9.1,5.9L151.8,68z M152.2,52.4
			l-8.5-5.5l-0.4-1.6l8.5,5.5L152.2,52.4z M152.4,65.3l-9-5.9l0.3-1.2l9,5.8L152.4,65.3z M153,62.4l-9-5.9c0.1-0.4,0.1-0.9,0.1-1.3
			L153,61V62.4z M152.9,55.9l-8.7-5.6c0-0.5-0.1-1.1-0.1-1.5l8.6,5.5L152.9,55.9z M153,59.2l-8.9-5.7c0-0.4,0.1-0.6,0.1-1v-0.4
			l8.7,5.7C153,58.3,153,58.8,153,59.2z"/>
		<path class="st0" d="M178.1,85.1l8,5.2h-2.2l-7.9-5.2H178.1z M183,85.1l7.9,5.2h-2.1l-8-5.2H183z M186.2,85.1V84l8.8,5.7v0.6h-1.2
			l-8-5.2H186.2z M195,39v1.4l-8.8-5.8v-1.4L195,39z M186.2,36.4l8.8,5.8v1.4l-8.8-5.8V36.4z M186.2,39.6l8.8,5.8v1.4l-8.8-5.8V39.6
			z M186.2,42.7l8.8,5.8V50l-8.8-5.8V42.7z M186.2,45.9l8.8,5.8v1.4l-8.8-5.8V45.9z M192,54.3l-5.8-3.8v-1.4l7.9,5.1
			C193.4,54.3,192.7,54.3,192,54.3z M189.3,54.3h-2.2l-0.9-0.6v-1.4L189.3,54.3z M186.2,68.1l8.8,5.8v1.4l-8.8-5.8V68.1z
			 M186.2,71.3l8.8,5.8v1.4l-8.8-5.8V71.3z M186.2,74.4l8.8,5.8v1.4l-8.8-5.8V74.4z M186.2,77.6l8.8,5.8v1.3l-8.8-5.7V77.6z
			 M186.2,80.8l8.8,5.7v1.4l-8.8-5.7V80.8z M189.6,67.1l7.9,5.2h-2.1l-8-5.2C187.4,67.1,189.6,67.1,189.6,67.1z M191,33.2l8,5.2
			h-2.2l-7.9-5.2H191z M192.3,67.1c0.6,0,1.3-0.1,1.9-0.1l8.2,5.3h-2.2L192.3,67.1z M201.7,38.4l-7.9-5.1c1.1,0.1,1.9,0.3,2.8,0.4
			l5.9,3.9l0.5,0.8L201.7,38.4L201.7,38.4z M205,72.2l-8.3-5.4l1.8-0.3l8.4,5.5L205,72.2z M209.1,71.8l-8.5-5.5l1.6-0.4l8.6,5.6
			L209.1,71.8z M212.9,70.9l-8.7-5.6l1.3-0.5l8.8,5.7C213.8,70.7,213.3,70.8,212.9,70.9z M215.9,69.9l-8.8-5.7l1.1-0.6l8.9,5.8
			L215.9,69.9z M218.8,68.5l-8.9-5.8c0.4-0.2,0.6-0.4,1-0.7l9,5.9L218.8,68.5z M221.2,66.9l-9.1-5.9l1-0.8l9,5.9L221.2,66.9z
			 M223.1,65l-9-5.9l0.7-0.9l9.1,5.9L223.1,65z M216.3,56l9.1,5.9c-0.2,0.4-0.4,0.7-0.6,1l-9.1-5.9C215.9,56.7,216.1,56.4,216.3,56z
			 M224.1,37.4l-6.9-4.4c-0.3-0.7-0.6-1.3-1-2l3.2,2.1C221.3,34.3,222.9,35.7,224.1,37.4z M226.2,60.6l-9.1-5.9l0.5-1.1l9.1,5.9
			L226.2,60.6z M226.7,41.9l-8-5.3l-0.5-1.7l7.8,5L226.7,41.9z M227.2,58.1l-9.1-5.9c0.2-0.4,0.2-0.8,0.4-1.2l9,5.9L227.2,58.1z
			 M227.9,55.4l-9-5.9l0.3-1.2l8.9,5.8C228,54.5,227.9,55,227.9,55.4z M227.9,45.9l-8.6-5.6l-0.3-1.5l8.5,5.5L227.9,45.9z
			 M228.2,52.5l-8.9-5.8c0.1-0.4,0.1-0.9,0.1-1.4l8.9,5.8C228.3,51.5,228.3,52,228.2,52.5z M228.3,49.3l-8.8-5.7c0-0.5,0-1-0.1-1.5
			l8.7,5.7L228.3,49.3z"/>
		<path class="st0" d="M249.7,85.1h2.1l7.9,5.2h-2.1L249.7,85.1z M256.7,85.1l8,5.2h-2.2l-7.9-5.2H256.7z M260.1,85.1V84l8.8,5.7
			v0.5h-1.4l-8-5.2L260.1,85.1L260.1,85.1z M260.1,23.8l8.8,5.8V31l-8.8-5.8V23.8z M260.1,27l8.8,5.8v1.4l-8.8-5.8V27z M260.1,30.1
			l8.8,5.8v1.4l-8.8-5.8V30.1z M260.1,33.3l8.8,5.8v1.4l-8.8-5.8V33.3z M260.1,36.5l8.8,5.8v1.4l-8.8-5.8V36.5z M260.1,39.7l8.8,5.8
			v1.4l-8.8-5.8V39.7z M260.1,42.8l7.7,5h-2.1l-5.6-3.6V42.8L260.1,42.8z M260.1,47.5V46l2.8,1.8h-2.2L260.1,47.5z M260.1,61.8
			l8.8,5.8V69l-8.8-5.8V61.8z M260.1,65l8.8,5.8v1.4l-8.8-5.8V65z M260.1,68.2l8.8,5.8v1.4l-8.8-5.8V68.2z M260.1,71.4l8.8,5.8v1.4
			l-8.8-5.8V71.4z M260.1,74.5l8.8,5.8v1.4l-8.8-5.8V74.5z M260.1,77.7l8.8,5.8v1.3l-8.8-5.7V77.7z M260.1,80.9l8.8,5.7V88l-8.8-5.7
			V80.9z M263.1,60.7l7.9,5.2h-2.1l-8-5.2H263.1z M268,60.7l8,5.2h-2.2l-7.9-5.2H268z M272.9,60.7l7.9,5.2h-2.1l-8-5.2H272.9z
			 M277.8,60.7l8,5.2h-2.2l-7.9-5.2H277.8z M282.6,60.7l4.9,3.2v1.4l-7.1-4.6L282.6,60.7L282.6,60.7z M287.5,62.1l-2.1-1.4h2.1V62.1
			z M295.8,85.1l7.9,5.2h-2.1l-7.9-5.2H295.8z M300.7,85.1l7.9,5.2h-2.1l-8-5.2H300.7z M310.7,29.9l-8.8-5.8v-1.3l8.8,5.8V29.9z
			 M301.8,25.6l8.8,5.8v1.4l-8.8-5.8V25.6z M301.8,28.7l8.8,5.8V36l-8.8-5.8V28.7z M301.8,31.9l8.8,5.8v1.4l-8.8-5.8V31.9z
			 M301.8,35.1l8.8,5.8v1.4l-8.8-5.8V35.1z M301.8,38.2l8.8,5.8v1.4l-8.8-5.8V38.2z M301.8,41.4l8.8,5.8v1.4l-8.8-5.8V41.4z
			 M301.8,44.6l8.8,5.8v1.4l-8.8-5.8V44.6z M301.8,47.8l8.8,5.8V55l-8.8-5.8V47.8z M301.8,50.9l8.8,5.8v1.4l-8.8-5.8V50.9z
			 M301.8,54.1l8.8,5.8v1.4l-8.8-5.8V54.1z M301.8,57.3l8.8,5.8v1.4l-8.8-5.8V57.3z M301.8,60.4l8.8,5.8v1.4l-8.8-5.8V60.4z
			 M301.8,63.6l8.8,5.8v1.4l-8.8-5.8V63.6z M301.8,66.8l8.8,5.8V74l-8.8-5.8V66.8z M301.8,69.9l8.8,5.8v1.4l-8.8-5.8V69.9z
			 M301.8,73.1l8.8,5.8v1.4l-8.8-5.8V73.1z M301.8,76.3l8.8,5.8v1.4l-8.8-5.8V76.3z M301.8,79.5l8.8,5.7v1.4l-8.8-5.7V79.5z
			 M301.8,82.6l8.8,5.7v1.4l-8.8-5.7V82.6z"/>
		<path class="st0" d="M337.7,85.1h1.5l8,5.2h-1.6L337.7,85.1z M343.2,85.1l7.9,5.2h-1.7l-8-5.2H343.2z M347.7,85.1l8,5.2h-2.2
			l-7.9-5.2H347.7z M356.8,29.7l-8.8-5.7v-1.3l8.8,5.8V29.7z M347.9,25.3l8.8,5.7v1.1l-8.8-5.7V25.3z M347.9,28.2l8.8,5.7v1.4
			l-8.8-5.7V28.2z M347.9,31.4l8.8,5.7v1.4l-8.8-5.7V31.4z M347.9,34.5l8.8,5.7v1.4l-8.8-5.6V34.5z M347.9,37.7l8.8,5.7v1.4
			l-8.8-5.7V37.7z M347.9,40.9l8.8,5.7V48l-8.8-5.7V40.9z M347.9,44.1l8.8,5.7v1.4l-8.8-5.7V44.1z M347.9,47.2l8.8,5.7v1.4l-8.8-5.7
			V47.2z M347.9,50.4l8.8,5.7v1.4l-8.8-5.7V50.4z M347.9,53.6l8.8,5.7v1.4l-8.8-5.7V53.6z M347.9,56.7l8.8,5.7v1.4l-8.8-5.7V56.7z
			 M347.9,59.9l8.8,5.7V67l-8.8-5.7V59.9z M347.9,63.1l8.8,5.7v1.4l-8.8-5.7V63.1z M347.9,66.3l8.8,5.7v1.4l-8.8-5.7V66.3z
			 M347.9,69.4l8.8,5.7v1.4l-8.8-5.7V69.4z M347.9,72.6l8.8,5.7v1.4l-8.8-5.7V72.6z M347.9,75.8l8.8,5.7v1.4l-8.8-5.7V75.8z
			 M347.9,78.9l8.8,5.7V86l-8.8-5.7V78.9z M347.9,82.1l8.8,5.7v1.4l-8.8-5.7V82.1z"/>
		<path class="st0" d="M383.8,85.1L383.8,85.1l8,5.2h-0.1L383.8,85.1z M388.8,85.1l8,5.2h-2.2l-8-5.2H388.8z M393.7,85.1l7.9,5.2
			h-2.1l-8-5.2H393.7z M394.2,34.7l8.8,5.7v1.4l-8.8-5.7V34.7z M394.2,37.9l8.8,5.7V45l-8.8-5.7V37.9z M401.7,47.4l-7.6-4.9v-1.4
			l8.8,5.7v0.6L401.7,47.4L401.7,47.4z M394.2,44.2l4.9,3.2h-2.1l-2.7-1.8L394.2,44.2L394.2,44.2z M394.2,60.3h0.4l8.5,5.5v1.4
			l-8.8-5.7v-1.2H394.2z M394.2,63.3L403,69v1.4l-8.8-5.7V63.3z M394.2,66.4l8.5,5.5h-2.2l-6.3-4.1L394.2,66.4L394.2,66.4z
			 M397.7,71.9h-2.1l-1.4-0.9v-1.4L397.7,71.9z M403,38.7l-8.4-5.5h2.2l7.9,5.2h-1.8L403,38.7L403,38.7z M398.5,85.1l8,5.2h-2.2
			l-7.9-5.2H398.5z M399.3,60.3l8,5.2h-2.2l-7.9-5.2H399.3z M401.7,33.2l8,5.2h-2.2l-7.9-5.2H401.7z M403.4,85.1l7.9,5.2h-2.1
			l-8-5.2H403.4z M404.2,60.3l7.9,5.2H410l-8-5.2H404.2z M406.5,33.2l7.9,5.2h-2.1l-8-5.2H406.5z M408.3,85.1l8,5.2h-2.2l-7.9-5.2
			H408.3z M409.2,60.3l7.9,5.2h-2.2l-7.9-5.2H409.2z M411.4,33.2l8,5.2h-2.2l-7.9-5.2H411.4z M413.1,85.1l8,5.2h-2.2l-7.9-5.2H413.1
			z M414,60.3l8,5.2h-2.2l-7.9-5.2H414z M416.3,33.2l7.9,5.2h-2.1l-8-5.2H416.3z M418.1,85.1l7.9,5.2h-2.1l-8-5.2H418.1z
			 M418.9,60.3l7.9,5.2h-2.1l-8-5.2H418.9z M421.2,33.2l8,5.2h-2.1l-8-5.2H421.2z M422.9,85.1l8,5.2h-2.2l-7.9-5.2H422.9z M430,57.1
			l-8.8-5.7V50l8.8,5.8V57.1z M421.2,52.8l8.8,5.7v1.2l-8.8-5.7V52.8z M421.2,55.4l8.8,5.7v1.4l-8.8-5.7V55.4z M429.6,65.5l-8.5-5.5
			v-1.4l8.8,5.7v1.1h-0.3V65.5z M432.8,29.8l-8.8-5.8v-1.3l8.8,5.8V29.8z M423.9,25.5l8.8,5.8v1.4l-8.8-5.8V25.5z M423.9,28.6
			l8.8,5.8v1.4l-8.8-5.8V28.6z M431.8,38.4l-7.9-5.2v-1.4l8.8,5.8v0.8H431.8z M423.9,76.2l8.8,5.8v1.4l-8.8-5.8V76.2z M423.9,79.4
			l8.8,5.7v1.4l-8.8-5.7V79.4z M423.9,82.5l8.8,5.7v1.4l-8.8-5.7V82.5z"/>
		<path class="st0" d="M467.4,48.7l-9.1-5.9l1-0.8l9.1,5.9L467.4,48.7z M469.5,47l-9.2-6l0.9-0.8l9.2,6L469.5,47z M471.5,45.1
			l-9.3-6.1l0.8-0.9l9.3,6L471.5,45.1z M473.3,43.1l-9.3-6.1c0.3-0.3,0.5-0.6,0.7-1l9.3,6L473.3,43.1z M474.7,40.8l-9.2-6l0.5-1.1
			l9.2,6L474.7,40.8z M475.9,38.3l-9.2-5.9l0.4-1.1l9.1,5.9L475.9,38.3z M475.8,29.1l-8.2-5.4l-0.4-1.5l6.3,4.1
			C474.5,27,475.2,27.9,475.8,29.1z M476.5,35.6l-9-5.8l0.3-1.3l8.9,5.8C476.6,34.7,476.6,35.2,476.5,35.6z M476.6,32.5l-8.7-5.7
			v-0.2c0-0.4,0-0.8-0.1-1.2l8.6,5.5C476.5,31.5,476.6,32,476.6,32.5z"/>
		<path class="st0" d="M504.9,85l5.4,3.5c-2.1-0.9-4.2-1.8-6-3l-1.9-1.2L504.9,85z M516.5,43.4l-9-5.8l0.3-1.3l9.1,5.9
			C516.7,42.6,516.6,42.9,516.5,43.4z M512.7,44.1l-3.7-2.4c-0.7-0.8-1.1-1.5-1.4-2.4l8.7,5.7v0.5C514.9,45,513.8,44.5,512.7,44.1z
			 M517.7,40.9l-9.2-6l0.8-0.9l9.1,5.9C518.1,40.3,517.9,40.5,517.7,40.9z M511.4,86.1l7.4,4.8c-1.1-0.2-2.1-0.4-3.2-0.6l-6.9-4.5
			C509.6,85.9,510.4,86,511.4,86.1z M519.5,39l-9-6l1.2-0.5l8.9,5.7L519.5,39z M522.3,37.6l-8.6-5.5c0.5-0.1,1.1-0.2,1.8-0.2h0.2
			l8.2,5.4C523.4,37.4,522.9,37.5,522.3,37.6z M516.2,86.1l8.1,5.3c-0.7,0-1.5-0.1-2.2-0.1l-7.9-5.1
			C514.9,86.2,515.6,86.1,516.2,86.1z M520.4,85.6l8.4,5.5l-1.9,0.2l-8.3-5.5L520.4,85.6z M526.5,37.1l-7.4-4.8
			c1.2,0.3,2.6,0.6,4,1.1l6,3.9C528.1,37.2,527.3,37.1,526.5,37.1z M523.8,84.7l8.7,5.6c-0.5,0.2-1.1,0.3-1.7,0.4l-8.6-5.5
			L523.8,84.7z M527,83.6l8.9,5.7l-1.4,0.5l-8.8-5.7L527,83.6z M529.7,82.2l9,5.8l-1.1,0.6l-9-5.8C529,82.6,529.3,82.4,529.7,82.2z
			 M532.8,38.1l-2.3-1.5l0.4-1.1l6.8,4.5C536.2,39.2,534.6,38.6,532.8,38.1z M532,80.5l9.1,5.8l-1,0.8l-9-5.8L532,80.5z M540.5,39.9
			l-9-5.9l0.4-1.1l9.1,5.9C540.9,39.1,540.7,39.5,540.5,39.9z M532.8,30.3l9.1,5.9c-0.1,0.4-0.3,0.8-0.4,1.1l-9.1-5.9L532.8,30.3z
			 M533.9,78.6l9.1,5.8l-0.8,0.9l-9.1-5.8L533.9,78.6z M542.5,34.8l-9.1-5.9l0.4-1.1l9.2,6C542.8,34.1,542.6,34.5,542.5,34.8z
			 M543.3,32.5l-9.2-6l0.4-0.9l9.2,5.9C543.7,31.9,543.6,32.3,543.3,32.5z M535.4,76.4l9.1,5.9l-0.6,1.1l-9.2-6
			C535,77.1,535.1,76.7,535.4,76.4z M542.5,63.3l-6.1-4c-0.2-0.3-0.3-0.6-0.4-1l2.3,1.5C540,61.1,541.3,62.2,542.5,63.3z
			 M536.5,73.9l9.1,6l-0.4,1.1l-9.2-5.9L536.5,73.9z M546.2,78.4l-9.1-5.9c0.2-0.4,0.3-0.8,0.4-1.2l8.9,5.9L546.2,78.4z M545.9,68.7
			l-8.3-5.4l-0.4-1.7l7.8,5.1C545.4,67.4,545.6,68.1,545.9,68.7z M537.8,68.4l8.9,5.8c0,0.4,0,0.9-0.1,1.3l-8.9-5.8
			C537.7,69.2,537.8,68.8,537.8,68.4z M546.6,72.4l-8.7-5.7c0-0.5,0-1-0.1-1.5l8.6,5.6C546.5,71.4,546.6,71.9,546.6,72.4z"/>
	</g>
	<g>
		<path class="st1" d="M26.6,84.6c-7.4,0-14.8-2.5-20.6-5.9l3.9-9.9c5.2,3.4,11.5,5.5,17.1,5.5c7.4,0,10.9-3.6,10.9-7.6
			c0-4.1-2.3-6.6-13.7-10.7C11.8,51.6,7.6,45.9,7.6,38.5c0-9.3,7.7-18,21.1-18c6.7,0,13.3,1.9,17.4,4.2l-3.6,9.7
			c-3.7-2-9.2-4.1-14-4.1c-6.6,0-9.6,3.6-9.6,7.9c0,4,3.4,6.4,12.3,9.6c14,5.4,18.1,10.8,18.1,18.9C49.2,77.8,40.6,84.6,26.6,84.6z"
			/>
		<path class="st1" d="M108.9,20.5c19.5,0,33.6,13.5,33.6,32c0,18.2-14.4,32-33.6,32s-33.5-13.6-33.5-32
			C75.4,34.6,90,20.5,108.9,20.5z M109,74.9c12.2,0,21.6-9.6,21.6-22.2c0-12.7-9-22.3-21.6-22.3c-12.4,0-21.6,9.6-21.6,22.3
			C87.3,65.1,96.8,74.9,109,74.9z"/>
		<path class="st1" d="M184.5,65.5v18h-11.1V21.6h19.2c16.8,0,25.1,9.1,25.1,22s-8.3,21.9-27.3,21.9H184.5L184.5,65.5z M184.5,31.6
			v24.2h7.3c10.4,0,13.9-5.5,13.9-12.2c0-6.8-3.5-12-13.9-12C191.9,31.6,184.5,31.6,184.5,31.6z"/>
		<path class="st1" d="M289.1,59.1h-30.7v24.4h-11.1V21.6h11.1v27.8h30.7V21.7h11.1v61.8h-11.1V59.1L289.1,59.1z"/>
		<path class="st1" d="M335.3,21.6h11.1v61.9h-11.1V21.6z"/>
		<path class="st1" d="M381.5,21.6h40.8v10h-29.8V49h27v9.7h-27v14.8h29.8v10h-40.8V21.6z"/>
		<path class="st1" d="M459.6,31c-0.2,0.1-0.5,0.1-0.6,0.1c-3.9,0-6.7-2.9-6.7-6.6c0-3.6,2.8-6.6,6.7-6.6c5.1,0,7.2,3.8,7.2,8.7
			c0,5.5-2.9,10.7-10.1,15.8l-2.6-3c3-2.3,6-6.5,6-8.2V31H459.6z"/>
		<path class="st1" d="M513.7,84.6c-7.4,0-14.8-2.5-20.6-5.9l3.9-9.9c5.2,3.4,11.5,5.5,17.1,5.5c7.4,0,10.9-3.6,10.9-7.6
			c0-4.1-2.3-6.6-13.7-10.7c-12.3-4.4-16.5-10.1-16.5-17.5c0-9.3,7.7-18,21.1-18c6.7,0,13.3,1.9,17.4,4.2l-3.6,9.7
			c-3.7-2-9.2-4.1-14-4.1c-6.6,0-9.6,3.6-9.6,7.9c0,4,3.4,6.4,12.3,9.6c14,5.4,18.1,10.8,18.1,18.9
			C536.2,77.8,527.7,84.6,513.7,84.6z"/>
	</g>
</g>
</svg>
