<?xml version="1.0" encoding="utf-8"?>
<!-- Generator: Adobe Illustrator 25.2.1, SVG Export Plug-In . SVG Version: 6.00 Build 0)  -->
<svg version="1.1" id="Capa_1" xmlns="http://www.w3.org/2000/svg" xmlns:xlink="http://www.w3.org/1999/xlink" x="0px" y="0px"
	 viewBox="0 0 197 197" style="enable-background:new 0 0 197 197;" xml:space="preserve">
<style type="text/css">
	.st0{fill:#032D48;}
</style>
<g>
	<path class="st0" d="M45.8,0C31,0,19,12.2,19,27.2v137.6c0,15,12,27.2,26.8,27.2h126.3c3.4,0,5.9-2.7,5.9-6v-21.1v-21.1V48.2V6
		c0-3.4-2.7-6-5.9-6H45.8z M42.6,7.6H170v39.7v98.3H42.6c-5.8,0-11.2,1.8-15.6,4.9V24.1C27,15,34,7.6,42.6,7.6z M168.9,184.5H43.5
		c-8.5,0-15.4-6.9-15.4-15.4s6.9-15.4,15.4-15.4h125.4v9.1H70.5c-3.5,0-6.2,2.8-6.2,6.2s2.8,6.2,6.2,6.2h98.4V184.5L168.9,184.5z"/>
	<path class="st0" d="M73.5,87.7v23.7c0,3.5,2.8,6.2,6.2,6.2h37.5c3.5,0,6.2-2.8,6.2-6.2V87.7c8.3-3.3,14-11.4,14-20.7
		c0-11.9-9.4-21.7-21.2-22.2C112,39.3,105.6,36,98.5,36s-13.6,3.3-17.7,8.8C69,45.3,59.5,55.1,59.5,67
		C59.5,76.3,65.2,84.4,73.5,87.7z M78,54.4c0.6,0,1.2,0,1.7,0.1c3.3,0.5,6.5-1.1,8-3.9c2.1-3.9,6.1-6.3,10.8-6.3
		c4.5,0,8.7,2.4,10.8,6.3c1.5,2.8,4.7,4.4,8,3.9c0.6-0.1,1.2-0.1,1.7-0.1c6.6,0,12,5,12,11.2c0,5.6-4.5,10.4-10.4,11.1
		c-3.8,0.5-6.7,3.6-6.7,7.1v25.4H83.2v-25l0,0c0.2-3.8-2.7-7.1-6.7-7.6c-6-0.6-10.5-5.4-10.5-11C66,59.4,71.4,54.4,78,54.4z"/>
</g>
</svg>
