<?xml version="1.0" encoding="utf-8"?>
<!-- Generator: Adobe Illustrator 25.2.1, SVG Export Plug-In . SVG Version: 6.00 Build 0)  -->
<svg version="1.1" id="Layer_1" xmlns="http://www.w3.org/2000/svg" xmlns:xlink="http://www.w3.org/1999/xlink" x="0px" y="0px"
	 viewBox="0 0 1000 1000" style="enable-background:new 0 0 1000 1000;" xml:space="preserve">
<style type="text/css">
	.st0{fill:#032D48;}
</style>
<g>
	<path class="st0" d="M747.9,958H254.1c-78,0-141.1-63.4-141.1-141.7v-496c0-78.3,63.2-141.7,141.1-141.7h70.6v-70.8h77
		C416.2,66.6,455,37,501,37s84.8,29.6,99.3,70.9h77v70.9h70.6c78,0,141.1,63.4,141.1,141.7v495.9C889,894.6,825.8,958,747.9,958z
		 M650.8,160.8h-37.7h-6.9h-68.5V85.4h-75.4v75.4h-68.4h-44.6v75.4H500h113.1h37.7V160.8z M839.2,290.1c0-43.1-33.7-78.1-75.4-78.1
		h-75.4v78.1H311.5V212h-75.4c-41.6,0-75.4,35-75.4,78.1v546.4c0,43.1,33.8,78.1,75.4,78.1h527.7c41.7,0,75.4-34.9,75.4-78.1
		L839.2,290.1L839.2,290.1z M349.2,782h414.6v57.2H349.2V782z M349.2,587h414.6v63.8H349.2V587z M349.2,402h414.6v60.3H349.2V402z
		 M236.2,782h75.4v57.2h-75.4L236.2,782L236.2,782z M236.2,587h75.4v63.8h-75.4L236.2,587L236.2,587z M236.2,402h75.4v60.3h-75.4
		L236.2,402L236.2,402z"/>
</g>
</svg>
